<?xml version="1.0" encoding="UTF-8" standalone="no"?>
<!-- Created with Inkscape (http://www.inkscape.org/) -->

<svg
   width="100.00001mm"
   height="99.999947mm"
   viewBox="0 0 100.00001 99.999947"
   version="1.1"
   id="svg5"
   inkscape:version="1.1.1 (3bf5ae0d25, 2021-09-20)"
   sodipodi:docname="logo.svg"
   xmlns:inkscape="http://www.inkscape.org/namespaces/inkscape"
   xmlns:sodipodi="http://sodipodi.sourceforge.net/DTD/sodipodi-0.dtd"
   xmlns="http://www.w3.org/2000/svg"
   xmlns:svg="http://www.w3.org/2000/svg">
  <sodipodi:namedview
     id="namedview7"
     pagecolor="#ffffff"
     bordercolor="#666666"
     borderopacity="1.0"
     inkscape:pageshadow="2"
     inkscape:pageopacity="0.0"
     inkscape:pagecheckerboard="0"
     inkscape:document-units="mm"
     showgrid="false"
     inkscape:lockguides="false"
     inkscape:zoom="1.2900929"
     inkscape:cx="115.10799"
     inkscape:cy="97.279815"
     inkscape:window-width="1366"
     inkscape:window-height="697"
     inkscape:window-x="-8"
     inkscape:window-y="-8"
     inkscape:window-maximized="1"
     inkscape:current-layer="layer1" />
  <defs
     id="defs2">
    <clipPath
       clipPathUnits="userSpaceOnUse"
       id="clipPath5662">
      <rect
         style="opacity:0.99;fill:none;fill-opacity:1;stroke:#ee0000;stroke-width:0.2;stroke-miterlimit:4;stroke-dasharray:none;stroke-opacity:1"
         id="rect5664"
         width="54.324837"
         height="54.520767"
         x="73.43737"
         y="134.87474"
         ry="1.1601562"
         rx="0.14501953" />
    </clipPath>
  </defs>
  <g
     inkscape:label="Capa 1"
     inkscape:groupmode="layer"
     id="layer1"
     transform="translate(-99.348645,-128.27847)">
    <path
       style="fill:#000000;stroke-width:0.49915"
       d="m 120.20834,227.33986 c -10.39877,-3.33962 -18.02613,-11.58979 -20.16493,-21.81151 -0.923042,-4.41149 -0.925904,-7.58327 -0.0112,-11.91737 0.95106,-4.504 2.5263,-7.8407 5.6557,-11.97988 l 2.56846,-3.39727 -2.56776,-3.35274 c -7.20151,-9.40294 -8.300723,-20.44617 -3.09222,-31.06579 3.38402,-6.89965 10.68436,-12.73533 18.44495,-14.74429 3.85242,-0.9973 10.55922,-1.01988 14.27754,-0.048 3.81561,0.99724 8.06579,3.20454 11.33365,5.88606 l 2.68664,2.20456 2.75736,-2.25604 c 3.17824,-2.6004 8.55741,-5.21856 12.37419,-6.02272 1.45234,-0.30602 4.37634,-0.5564 6.4978,-0.5564 13.26005,0 24.98615,9.61896 27.73369,22.75001 1.81858,8.69136 -0.31582,17.49885 -5.91112,24.39177 l -2.34178,2.88486 2.33486,2.86167 c 5.82768,7.1426 7.92914,16.50264 5.68332,25.31365 -1.39798,5.48468 -3.68174,9.4856 -7.73332,13.548 -5.62088,5.63585 -12.09985,8.24999 -20.44721,8.24999 -6.93238,0 -12.72715,-2.12008 -18.15353,-6.64165 l -2.67952,-2.23272 -2.68458,2.1941 c -3.32452,2.71707 -7.50026,4.86473 -11.46095,5.89453 -4.0954,1.06486 -11.5438,0.98954 -15.1005,-0.1526 z m 17.83818,-6.05121 c 4.03061,-1.89258 7.59871,-4.86358 9.64313,-8.0294 l 1.5798,-2.44638 1.33652,2.1146 c 2.80716,4.44152 9.84987,9.12138 15.16279,10.07559 13.21206,2.37296 25.47181,-5.73823 28.14991,-18.62433 1.46934,-7.06997 -0.47372,-14.62029 -5.27582,-20.50059 l -1.78444,-2.18512 -1.00002,1.00346 -1.00004,1.0034 2.30588,3.07798 c 7.99936,10.67778 4.44568,26.01419 -7.30657,31.53247 -6.4511,3.02914 -12.39828,3.0251 -18.557,-0.012 -3.77781,-1.86334 -7.93411,-5.81108 -9.24233,-8.77862 -1.28692,-2.9192 -1.38212,-7.42092 -0.20636,-9.75671 0.48008,-0.95374 7.86114,-8.82156 16.40233,-17.48408 17.23387,-17.47865 17.74403,-18.16157 18.13517,-24.27738 0.43246,-6.7614 -2.59076,-12.1562 -8.51023,-15.18606 -2.94018,-1.50492 -3.81722,-1.71592 -7.20662,-1.73362 -3.1852,-0.018 -4.33754,0.21208 -6.59966,1.3098 -1.50736,0.7315 -3.40254,1.89376 -4.21149,2.58284 -1.42962,1.21772 -1.44562,1.28082 -0.57068,2.2509 0.89455,0.99182 0.91563,0.98738 3.37601,-0.71082 4.37118,-3.0171 8.86168,-3.54968 13.12668,-1.5568 5.04234,2.35606 7.88643,6.70928 7.88643,12.07116 0,5.54599 -0.6056,6.35595 -17.56241,23.48891 -8.44337,8.53109 -15.70289,16.04137 -16.13223,16.68953 l -0.78068,1.17846 -0.75348,-1.42846 c -0.4144,-0.78566 -3.78654,-4.45326 -7.49362,-8.15024 -6.70825,-6.68998 -6.74505,-6.71732 -7.77955,-5.77792 l -1.03938,0.94384 6.9787,7.02794 c 7.53805,7.5912 8.51175,9.12774 8.51175,13.43199 0,9.4339 -12.06297,17.85624 -22.73859,15.87602 -5.96608,-1.10668 -12.62735,-5.65298 -14.98465,-10.22702 -3.71662,-7.21168 -3.49158,-15.23517 0.613,-21.85615 0.74908,-1.20832 7.76007,-8.65471 15.57997,-16.54757 12.23542,-12.34953 14.12873,-14.45863 13.57757,-15.12499 -0.35224,-0.42588 -0.90811,-0.77434 -1.23529,-0.77434 -0.32718,0 -7.1362,6.60843 -15.13118,14.68543 -13.52407,13.66277 -14.66117,14.94919 -16.32919,18.47355 -3.42298,7.23236 -3.45194,14.25481 -0.0874,21.21105 5.52152,11.41608 19.73863,16.50001 31.15331,11.14022 z m -3.16698,-7.1946 c 3.52638,-1.6454 6.51911,-4.59676 7.29147,-7.1907 1.13694,-3.81834 0.24652,-5.44983 -7.01097,-12.84581 l -6.38568,-6.50754 -1.05804,0.9608 -1.05806,0.96078 5.94666,6.0284 c 6.29912,6.38569 7.05125,7.40687 7.05125,9.57329 0,3.4965 -6.24561,7.70926 -11.41593,7.7002 -7.29418,-0.012 -13.12537,-5.8972 -13.12537,-13.24509 0,-5.54348 0.61444,-6.3791 16.40461,-22.31007 12.24707,-12.35632 14.18157,-14.50858 13.63483,-15.16962 -0.35042,-0.42366 -0.90214,-0.77032 -1.22604,-0.77032 -0.32386,0 -6.88249,6.35626 -14.57471,14.125 -15.89909,16.05727 -16.61457,17.04505 -16.99851,23.46745 -0.2083,3.48417 -0.0904,4.14099 1.26352,7.04429 2.31226,4.95806 5.99151,8.09738 10.95627,9.34848 2.7785,0.70016 7.42862,0.1724 10.3047,-1.16954 z m 42.32206,0.0336 c 5.60473,-2.57468 8.90953,-7.57536 9.21383,-13.94199 0.1574,-3.29392 0.004,-4.23892 -1.08248,-6.61776 -0.6964,-1.52632 -1.87732,-3.57908 -2.62428,-4.56174 -1.3581,-1.78662 -1.3581,-1.78662 -2.35469,-0.78662 -0.99662,1 -0.99662,1 0.35612,2.77956 3.96119,5.21112 3.97983,11.91161 0.0474,17.08473 -1.85782,2.44404 -6.7459,4.69692 -10.16172,4.68346 -4.2126,-0.018 -8.84032,-2.48258 -11.12891,-5.9303 -1.82598,-2.75076 -1.8107,-2.77096 14.95573,-19.76385 16.85407,-17.08171 17.62981,-18.06833 19.28343,-24.52491 2.76974,-10.81449 -2.69668,-22.20217 -13.03549,-27.1557 -3.85262,-1.84584 -3.95262,-1.86422 -10.14392,-1.86422 -6.23476,0 -6.26376,0.006 -9.96604,1.8765 -2.04219,1.03206 -4.61001,2.65556 -5.70627,3.60775 l -1.99322,1.73124 1.02016,1.027 1.02016,1.02696 2.06594,-1.7744 c 8.14203,-6.99303 20.80297,-6.45331 28.44272,1.21248 6.62188,6.64446 7.99284,16.33202 3.5523,25.10171 -0.70924,1.40068 -6.6324,7.78052 -16.42443,17.69071 -8.42334,8.52502 -15.58199,16.01814 -15.90811,16.65138 -2.07272,4.02467 0.79336,9.19937 6.80397,12.28455 4.12662,2.11814 9.37698,2.18046 13.76772,0.1634 z m -44.68998,-7.62046 c 1.18886,-0.69908 2.16156,-1.43402 2.16156,-1.63316 0,-0.1992 -2.5908,-2.9459 -5.75736,-6.10391 l -5.75736,-5.74184 -1.2018,1.38296 c -6.08183,6.99872 2.49946,16.83285 10.55496,12.09595 z m 41.87024,0.44294 c 4.27146,-2.03386 5.71484,-7.98759 2.95204,-12.17669 l -1.40334,-2.12782 -5.9288,5.9335 c -3.26084,3.26342 -5.9288,6.09301 -5.9288,6.28799 0,0.195 0.953,0.9276 2.11778,1.62808 2.50712,1.50776 5.61722,1.6805 8.19112,0.45494 z m -18.77729,-22.92461 5.71693,-5.75275 -5.84705,-5.867 -5.84708,-5.86698 -5.9822,5.9869 -5.98217,5.98694 5.59775,5.63281 c 3.07876,3.09808 5.8293,5.63282 6.11232,5.63282 0.283,0 3.08718,-2.58874 6.2315,-5.75274 z m -44.02268,-14.24673 c -6.38752,-8.52624 -5.67592,-20.08759 1.69138,-27.48001 6.49675,-6.51889 16.00163,-8.06141 24.37027,-3.95501 2.81213,1.37985 5.27713,3.60881 17.99833,16.27479 14.71373,14.64987 14.74159,14.67409 15.67845,13.63535 0.93476,-1.0364 0.87818,-1.1009 -13.99247,-15.95147 -15.65252,-15.63141 -16.73356,-16.49579 -22.86883,-18.28543 -2.13542,-0.6229 -4.18998,-0.7972 -7.70238,-0.65342 -4.11586,0.1684 -5.27134,0.42254 -8.20844,1.80484 -8.35559,3.93241 -13.32191,11.10337 -14.10041,20.35987 -0.47948,5.70113 1.67656,12.21021 5.68656,17.16765 l 1.75338,2.16768 1.00004,-1.00344 1.00002,-1.00344 z m 40.77336,-11.48885 c -12.39178,-12.39276 -14.88323,-14.6547 -17.43081,-15.82498 -6.08504,-2.79532 -13.29518,-1.51942 -17.94757,3.17596 -3.41274,3.44428 -4.47868,6.15702 -4.47452,11.38738 0.004,4.78317 0.6754,6.75015 3.6379,10.65435 l 1.25532,1.65438 1.01817,-1.02166 1.01816,-1.02164 -1.11592,-1.38272 c -2.10507,-2.6084 -3.20121,-5.63906 -3.19951,-8.84611 0.004,-7.24608 4.99213,-12.5715 12.32907,-13.16246 5.74068,-0.46236 6.89126,0.364 23.16463,16.63691 14.20993,14.20958 14.21027,14.20986 15.20683,13.21002 0.9966,-0.99988 0.99634,-1.00016 -13.46175,-15.45943 z m -17.83885,-6.73358 c -0.0884,-0.26602 -1.13358,-0.9999 -2.32268,-1.63086 -7.7918,-4.13444 -15.60955,4.42566 -10.73878,11.75845 l 1.43188,2.15568 5.89514,-5.89981 c 3.24232,-3.24488 5.82282,-6.11744 5.73444,-6.38346 z m 44.02768,7.55508 c 1.4445,-5.1391 -2.57982,-10.33314 -8.0061,-10.33314 -2.22468,0 -3.59952,0.5552 -5.3594,2.1643 l -1.13676,1.03936 5.85676,5.89204 5.85674,5.89205 1.125,-1.36888 c 0.61874,-0.75288 1.36744,-2.23146 1.66376,-3.28573 z"
       id="path5746" />
  </g>
</svg>
